<?xml version="1.0" standalone="no"?>
<!DOCTYPE svg PUBLIC "-//W3C//DTD SVG 20010904//EN"
 "http://www.w3.org/TR/2001/REC-SVG-20010904/DTD/svg10.dtd">
<svg version="1.0" xmlns="http://www.w3.org/2000/svg"
 width="315.000000pt" height="313.000000pt" viewBox="0 0 315.000000 313.000000"
 preserveAspectRatio="xMidYMid meet">

<g transform="translate(0.000000,313.000000) scale(0.100000,-0.100000)"
fill="#000000" stroke="none">
<path d="M1375 2984 c-5 -2 -44 -10 -85 -18 -155 -28 -247 -60 -396 -137 -391
-202 -660 -564 -752 -1009 -21 -105 -21 -437 0 -540 94 -449 361 -807 752
-1009 219 -113 373 -151 635 -158 187 -5 276 6 436 52 380 110 705 379 882
730 108 216 153 407 153 655 0 248 -45 439 -153 655 -174 345 -498 617 -867
727 -145 43 -258 58 -430 57 -91 0 -169 -2 -175 -5z m35 -253 c0 -5 -10 -12
-22 -16 l-23 -8 23 -4 c25 -5 30 -23 7 -23 -8 0 -15 -5 -15 -11 0 -6 9 -8 21
-4 15 5 20 3 17 -6 -3 -8 -19 -15 -36 -17 -30 -3 -32 -1 -32 27 0 16 -3 36 -6
44 -3 10 2 17 13 20 31 8 53 7 53 -2z m157 -18 c4 -10 1 -19 -6 -21 -11 -4
-11 -6 0 -13 20 -12 5 -21 -32 -17 l-34 3 25 23 c19 18 21 22 7 22 -9 0 -17 5
-17 10 0 17 50 11 57 -7z m101 -19 c3 -33 -14 -49 -42 -38 -37 14 -22 78 17
72 16 -2 23 -11 25 -34z m-370 8 c2 -7 -5 -12 -17 -12 -27 0 -37 -19 -18 -38
13 -13 19 -13 32 -2 21 18 33 3 13 -17 -24 -23 -66 -10 -74 24 -6 20 -2 31 16
45 24 20 41 20 48 0z m470 6 c17 -17 15 -43 -4 -59 -31 -26 -70 25 -44 56 15
18 32 19 48 3z m111 -13 c-1 -5 -12 -9 -23 -8 -20 3 -20 2 2 -7 34 -15 23 -66
-13 -58 -50 9 -40 92 10 86 14 -2 25 -7 24 -13z m-680 -54 c14 -42 6 -56 -22
-36 -30 21 -40 19 -27 -5 8 -16 8 -20 -3 -20 -8 0 -21 18 -30 40 -13 35 -14
40 -1 40 9 0 25 -5 36 -11 18 -10 20 -9 14 6 -7 20 3 41 14 28 4 -4 12 -23 19
-42z m-119 -41 c23 -45 24 -50 10 -50 -12 0 -51 75 -43 84 10 10 11 8 33 -34z
m920 19 c0 -5 -7 -9 -15 -9 -15 0 -20 12 -9 23 8 8 24 -1 24 -14z m-990 -29
c0 -5 -8 -11 -17 -13 -11 -3 -7 -5 10 -6 32 -1 45 -24 27 -46 -14 -17 -50 -20
-50 -5 0 6 7 10 15 10 8 0 15 4 15 9 0 4 -11 6 -25 3 -36 -6 -46 25 -16 50 22
17 41 16 41 -2z m-128 -115 c0 -5 -5 -11 -11 -13 -6 -2 -11 4 -11 13 0 9 5 15
11 13 6 -2 11 -8 11 -13z m1694 -267 c28 -30 8 -48 -76 -69 -45 -12 -78 -26
-84 -37 -8 -13 -56 -123 -56 -128 0 -1 17 -4 38 -8 70 -11 95 -68 35 -82 -91
-20 -119 -34 -131 -67 -17 -46 -16 -47 20 -36 50 14 99 11 120 -8 38 -34 23
-47 -91 -86 -61 -20 -112 -37 -115 -37 -18 0 -56 59 -56 86 0 35 54 205 99
309 26 61 28 72 15 86 -17 19 -18 48 -1 53 66 20 225 52 243 48 13 -2 31 -13
40 -24z m-417 -33 c34 -17 63 -74 63 -121 0 -52 -47 -137 -103 -188 -44 -40
-137 -86 -173 -86 -8 0 -22 -32 -36 -77 -12 -43 -26 -82 -30 -86 -14 -16 -48
3 -61 35 -16 38 2 114 64 281 l40 108 -22 16 c-35 24 -23 52 32 74 26 10 68
28 95 39 57 23 94 25 131 5z m-313 -36 c25 -28 21 -93 -12 -171 -15 -35 -53
-135 -84 -223 -36 -99 -64 -161 -73 -163 -8 -2 -25 10 -37 25 -17 22 -21 36
-16 69 11 82 126 392 170 459 20 30 27 31 52 4z m-279 -40 c36 -22 63 -65 63
-99 0 -30 -30 -122 -45 -138 -10 -11 -17 -11 -34 -3 -35 19 -44 48 -36 118 6
61 6 64 -12 55 -52 -29 -114 -117 -143 -202 -34 -99 -13 -210 38 -210 25 0 68
47 101 111 31 61 56 70 80 28 18 -32 11 -61 -29 -121 -50 -76 -150 -109 -220
-73 -70 36 -108 137 -90 238 22 115 117 254 202 295 55 27 83 27 125 1z m-287
-64 c19 -20 21 -27 10 -40 -7 -8 -19 -15 -26 -15 -8 0 -42 -8 -75 -17 -65 -18
-80 -35 -114 -134 l-13 -37 33 1 c38 1 75 -26 75 -54 0 -13 -12 -21 -42 -29
-94 -24 -110 -33 -124 -74 -13 -35 -12 -37 4 -31 9 4 40 9 68 12 44 5 55 2 73
-16 11 -11 21 -27 21 -34 0 -8 -46 -29 -117 -52 l-117 -38 -28 33 c-15 19 -28
41 -28 49 0 26 51 183 92 284 39 95 39 99 22 118 -29 32 -8 50 92 74 123 31
165 31 194 0z m-436 -29 c74 -31 99 -122 57 -204 -23 -45 -97 -116 -145 -139
l-34 -16 39 -49 c41 -52 55 -88 45 -113 -13 -35 -37 -27 -101 34 -35 33 -67
61 -72 61 -4 0 -17 -29 -27 -65 -22 -77 -34 -90 -64 -69 -45 32 -33 124 43
328 l37 98 -21 15 c-41 28 -26 47 67 85 77 32 106 43 135 47 4 0 22 -5 41 -13z
m1386 -470 c16 -31 9 -81 -26 -166 -65 -162 -93 -250 -81 -250 6 0 29 4 50 9
47 11 93 -2 108 -32 9 -16 8 -23 -7 -34 -10 -7 -25 -13 -33 -13 -9 0 -52 -13
-95 -30 -85 -31 -101 -30 -130 12 -9 12 -16 37 -16 55 0 49 138 420 172 460
17 21 43 15 58 -11z m-251 -24 c73 -39 89 -129 38 -209 -30 -47 -97 -108 -142
-130 l-33 -16 29 -31 c60 -62 75 -126 37 -150 -15 -9 -29 0 -87 58 l-70 69
-21 -72 c-24 -79 -40 -93 -70 -66 -39 35 -15 173 58 350 l29 70 -24 19 c-34
25 -25 45 30 67 26 10 68 28 95 39 59 24 89 25 131 2z m-324 -32 c25 -28 21
-92 -11 -170 -14 -36 -52 -137 -84 -225 -36 -98 -64 -161 -73 -163 -8 -2 -25
10 -37 25 -17 22 -21 36 -16 69 11 83 125 390 170 459 20 30 28 31 51 5z
m-287 -50 c19 -12 40 -37 49 -57 14 -34 13 -43 -4 -107 -20 -79 -34 -89 -77
-55 -28 22 -28 24 -22 91 4 46 3 68 -5 68 -6 0 -36 -26 -68 -57 -55 -56 -92
-117 -106 -175 -8 -30 -9 -30 104 3 110 33 181 18 181 -37 0 -19 -5 -24 -25
-24 -19 0 -25 -5 -25 -20 0 -51 -70 -141 -129 -166 -71 -30 -156 -8 -195 51
-65 98 -23 280 93 407 83 91 163 118 229 78z m1342 -65 c0 -8 -4 -15 -9 -15
-13 0 -22 16 -14 24 11 11 23 6 23 -9z m-66 -127 c-6 -22 -6 -22 13 -5 23 20
49 22 56 5 6 -18 -10 -58 -23 -58 -7 0 -9 9 -4 23 6 21 6 21 -13 4 -25 -22
-53 -13 -53 17 0 24 8 36 22 36 5 0 6 -10 2 -22z m-29 -95 c-6 -26 -5 -26 8
-10 19 23 30 22 22 -3 -3 -11 -2 -20 4 -20 5 0 13 9 16 20 4 11 10 18 15 15 8
-5 -7 -65 -16 -65 -7 0 -84 32 -84 35 0 2 4 15 10 29 13 35 32 34 25 -1z
m-2095 -68 c0 -8 -4 -15 -9 -15 -13 0 -22 16 -14 24 11 11 23 6 23 -9z m2085
-37 c-1 -16 3 -28 7 -28 4 0 8 -7 8 -15 0 -19 -2 -19 -45 2 -38 18 -41 24 -24
54 16 31 54 21 54 -13z m-1975 -97 c0 -45 -67 -57 -93 -17 -16 23 -15 25 21
49 l37 25 18 -20 c9 -11 17 -28 17 -37z m1956 -3 c13 -20 -6 -19 -40 2 -49 30
-49 57 -1 29 19 -12 38 -25 41 -31z m-86 -17 c0 -6 -4 -13 -10 -16 -5 -3 -10
-15 -10 -26 0 -26 40 -26 47 1 7 26 23 26 23 1 0 -25 -35 -50 -61 -44 -12 3
-26 16 -31 29 -9 19 -8 28 7 44 19 21 35 26 35 11z m-1826 -30 c7 -11 -65 -62
-77 -54 -6 3 5 19 24 34 37 31 45 34 53 20z m1756 -49 c0 -4 -5 -13 -12 -20
-17 -17 -2 -27 17 -12 14 12 15 10 9 -16 l-7 -29 22 19 c30 27 40 10 10 -19
l-24 -24 -33 29 c-33 28 -34 28 -17 54 17 25 35 35 35 18z m-1705 -23 c8 -25
-2 -39 -11 -15 -10 27 -21 18 -16 -14 6 -40 -23 -53 -50 -21 -10 13 -15 28
-11 34 4 6 11 4 18 -6 18 -24 22 -21 17 13 -4 27 -1 30 21 30 17 0 28 -7 32
-21z m55 -58 c0 -6 -5 -13 -10 -16 -8 -5 -7 -11 1 -21 9 -11 15 -12 26 -3 29
25 25 -3 -5 -33 -17 -18 -35 -29 -39 -25 -3 4 -1 13 5 19 17 17 -5 43 -25 27
-27 -23 -26 2 2 31 29 30 45 38 45 21z m1597 -21 c3 -11 12 -20 19 -20 8 0 14
-4 14 -10 0 -5 -12 -10 -26 -10 -21 0 -24 -3 -15 -13 24 -30 -5 -25 -36 5 -31
30 -32 33 -16 50 22 24 54 23 60 -2z m-1532 -94 c-15 -20 -31 -33 -36 -30 -10
6 -5 15 26 56 11 15 24 23 29 18 4 -5 -4 -24 -19 -44z m1399 15 c4 -5 0 -11
-6 -14 -9 -3 -7 -13 9 -34 20 -28 21 -43 3 -43 -3 0 -14 14 -24 31 -13 22 -21
27 -30 20 -7 -6 -16 -8 -20 -4 -3 4 6 17 21 30 31 25 39 27 47 14z m-1324 -43
c0 -30 0 -31 20 -13 30 27 35 12 8 -29 -27 -41 -41 -41 -48 0 -5 26 -7 27 -17
10 -5 -10 -15 -16 -22 -12 -7 5 -2 20 15 46 30 45 44 44 44 -2z m1228 -32
c-25 -18 -22 -24 7 -18 47 9 43 -48 -5 -61 -13 -3 -20 0 -20 8 0 8 8 16 18 18
10 3 6 5 -11 6 -50 2 -43 61 7 61 20 -1 20 -2 4 -14z m-1098 -21 c16 -20 5
-32 -14 -16 -19 16 -36 6 -36 -20 0 -21 16 -26 22 -7 3 7 10 8 21 2 15 -9 15
-13 4 -28 -12 -17 -17 -17 -43 -5 -34 16 -42 49 -19 73 21 20 49 21 65 1z
m1020 -11 c0 -4 -8 -13 -17 -21 -17 -13 -16 -14 5 -10 24 6 31 -10 7 -19 -8
-4 -12 -10 -9 -15 3 -5 13 -5 25 1 14 8 19 7 19 -3 0 -11 -38 -37 -54 -37 -4
0 -36 77 -36 86 0 5 39 22 53 23 4 1 7 -2 7 -5z m-855 -68 c31 -46 -25 -97
-66 -60 -23 21 -24 42 -2 66 22 25 50 23 68 -6z m765 6 c0 -10 5 -23 12 -30
14 -14 -4 -36 -38 -46 -19 -6 -24 0 -37 38 -17 49 -14 54 36 55 20 1 27 -4 27
-17z m-693 -48 c-3 -47 19 -56 30 -13 12 46 38 53 28 8 -10 -47 -28 -63 -59
-55 -21 5 -26 13 -26 35 0 16 3 36 6 45 11 29 23 17 21 -20z m533 16 c0 -5 -9
-10 -20 -10 -11 0 -20 -5 -20 -11 0 -6 9 -9 20 -6 23 6 27 -11 5 -19 -22 -9
-18 -23 4 -17 10 3 22 0 25 -5 6 -10 -51 -29 -59 -20 -2 2 -8 22 -13 45 -10
45 -6 51 36 52 12 1 22 -3 22 -9z m-384 -10 c29 0 32 -16 4 -23 -15 -4 -20
-14 -20 -36 0 -18 -5 -31 -13 -31 -9 0 -11 12 -9 40 3 25 0 40 -7 40 -6 0 -11
5 -11 11 0 6 7 8 16 5 9 -3 27 -6 40 -6z m224 -20 c0 -11 7 -20 15 -20 8 0 15
9 15 20 0 11 6 20 14 20 9 0 15 -15 18 -45 2 -31 -1 -45 -9 -45 -7 0 -13 9
-13 20 0 25 -26 16 -33 -12 -3 -11 -10 -17 -16 -13 -14 8 -14 95 -1 95 6 0 10
-9 10 -20z m-62 -4 c-11 -8 -18 -26 -18 -45 0 -21 -5 -31 -15 -31 -10 0 -15
11 -15 35 0 19 -4 35 -10 35 -5 0 -10 5 -10 10 0 6 19 10 43 10 37 -1 40 -2
25 -14z"/>
<path d="M1630 2695 c0 -8 5 -15 10 -15 6 0 10 7 10 15 0 8 -4 15 -10 15 -5 0
-10 -7 -10 -15z"/>
<path d="M1735 2690 c-4 -6 -3 -16 3 -22 6 -6 12 -6 17 2 4 6 3 16 -3 22 -6 6
-12 6 -17 -2z"/>
<path d="M1830 2650 c0 -5 4 -10 9 -10 6 0 13 5 16 10 3 6 -1 10 -9 10 -9 0
-16 -4 -16 -10z"/>
<path d="M2073 2078 c-34 -17 -43 -28 -48 -57 -4 -20 -15 -55 -25 -78 -10 -24
-15 -43 -10 -43 20 0 97 69 117 105 22 38 31 96 16 94 -5 0 -27 -10 -50 -21z"/>
<path d="M761 1906 c-17 -9 -30 -34 -47 -87 -13 -41 -24 -75 -24 -77 0 -12 64
35 98 72 30 33 42 54 42 76 0 25 -4 30 -22 30 -13 -1 -34 -7 -47 -14z"/>
<path d="M1893 1420 c-30 -13 -43 -25 -43 -39 0 -12 -9 -44 -20 -73 -11 -29
-20 -54 -20 -56 0 -9 51 27 87 61 42 40 70 97 58 117 -8 13 -13 13 -62 -10z"/>
<path d="M1120 1043 c0 -46 19 -87 43 -91 18 -4 87 57 87 77 0 7 -9 9 -23 6
-27 -7 -67 6 -90 30 -16 15 -17 14 -17 -22z"/>
<path d="M2565 1040 c-3 -5 1 -10 9 -10 9 0 16 5 16 10 0 6 -4 10 -9 10 -6 0
-13 -4 -16 -10z"/>
<path d="M570 952 c-23 -19 -23 -21 -7 -28 22 -8 40 8 35 31 -3 16 -5 16 -28
-3z"/>
<path d="M2335 731 c-6 -11 9 -23 19 -14 9 9 7 23 -3 23 -6 0 -12 -4 -16 -9z"/>
<path d="M1167 484 c-16 -16 -7 -44 14 -44 15 0 20 5 17 22 -3 22 -19 33 -31
22z"/>
<path d="M1930 480 c0 -5 4 -10 9 -10 6 0 13 5 16 10 3 6 -1 10 -9 10 -9 0
-16 -4 -16 -10z"/>
<path d="M1950 450 c0 -5 5 -10 10 -10 6 0 10 5 10 10 0 6 -4 10 -10 10 -5 0
-10 -4 -10 -10z"/>
</g>
</svg>
